<?xml version="1.0" encoding="UTF-8"?>
<svg version="1.1" xmlns="http://www.w3.org/2000/svg" width="512" height="512">
<path d="M0 0 C1.26489258 0.00829834 2.52978516 0.01659668 3.83300781 0.02514648 C33.01626375 0.54880516 57.82582309 12.82585725 78.21484375 33.5703125 C83.21512515 39.22548438 88.36365485 45.6648097 91.75 52.4375 C92.6678125 52.23253906 93.585625 52.02757812 94.53125 51.81640625 C120.72381065 46.06614871 145.7099556 48.12847467 168.93896484 62.25146484 C190.04900288 76.07629158 202.28939727 96.80762249 208.05078125 120.96875 C208.75 124.4375 208.75 124.4375 208.75 128.4375 C210.24466797 128.59025391 210.24466797 128.59025391 211.76953125 128.74609375 C215.92628887 129.34647949 219.62183776 130.78965967 223.4375 132.5 C224.13447998 132.81090576 224.83145996 133.12181152 225.54956055 133.44213867 C247.34707412 143.46774577 262.49349774 160.60101728 271.75 182.4375 C280.62536849 207.0882948 278.7566556 234.14406225 268.37890625 258.00390625 C262.662248 270.05412831 253.97149494 281.79770061 243.75 290.4375 C242.87903687 291.20296143 242.87903687 291.20296143 241.99047852 291.98388672 C235.19227586 297.30243887 228.95847284 297.28194519 220.5625 297.0625 C219.31791016 297.06894531 218.07332031 297.07539063 216.79101562 297.08203125 C205.62094256 296.95040746 205.62094256 296.95040746 200.75 292.4375 C197.12166337 288.61819828 196.43999542 285.55470994 196.25 280.4375 C196.43999542 275.32029006 197.12166337 272.25680172 200.75 268.4375 C205.4338061 264.65469037 208.7449719 264.11253977 214.5625 264.3125 C218.66688748 264.22691398 221.94185688 263.93930315 225.51171875 261.72265625 C232.01077705 254.90601744 236.0861696 246.02531719 239.75 237.4375 C240.13414062 236.54675781 240.51828125 235.65601563 240.9140625 234.73828125 C245.77577469 220.63022859 244.20043878 202.72637388 237.75 189.4375 C234.46401129 183.76374273 230.63265613 178.83189052 225.75 174.4375 C225.27433594 173.96957031 224.79867188 173.50164062 224.30859375 173.01953125 C215.53639199 164.79691322 205.3961709 161.72675338 193.78051758 159.90576172 C187.1230319 158.80063867 182.69215633 156.95705416 178.4375 151.4375 C175.98434301 147.07633202 175.67755734 143.810154 175.56201172 138.80297852 C175.16674514 124.92040696 171.65211432 113.39088451 162.75 102.4375 C162.14542969 101.61636719 161.54085938 100.79523438 160.91796875 99.94921875 C151.65629595 89.21902846 137.15940708 83.29320553 123.25 82.25 C111.57317358 81.95807934 101.98995123 85.68817963 91.4921875 90.46484375 C86.30261653 92.67295532 83.12164645 92.73709188 77.75 91.4375 C70.87516471 88.0674827 68.13398185 82.47338891 65.046875 75.78125 C56.35982292 57.12637702 43.12946125 45.04661362 23.75 37.4375 C5.81531503 30.98000443 -13.17721763 32.85684316 -30.37939453 40.52392578 C-35.3672813 42.95993104 -39.823406 46.11580624 -44.25 49.4375 C-45.301875 50.18 -46.35375 50.9225 -47.4375 51.6875 C-62.44406629 66.36058704 -69.50234362 84.50394091 -69.78466797 105.23291016 C-69.93853374 111.66602538 -70.87773078 117.12135709 -74.72265625 122.49609375 C-81.23364429 128.14321606 -87.67508035 127.4819301 -95.95068359 127.34106445 C-108.68093306 127.16362352 -119.91626836 129.41913418 -131.25 135.4375 C-132.09175781 135.87964844 -132.93351562 136.32179687 -133.80078125 136.77734375 C-150.7634863 146.3007287 -161.84855984 161.93291768 -167.625 180.3125 C-172.64811701 200.86928979 -169.13038017 221.38206598 -158.25 239.4375 C-151.08365452 249.58123002 -142.81398571 256.85271715 -132.1730957 263.06689453 C-127.98195178 265.60857529 -125.51108668 268.08545696 -123.25 272.4375 C-122.27505608 277.94306567 -122.50439479 282.89105956 -124.9375 287.9375 C-126.0821875 289.175 -126.0821875 289.175 -127.25 290.4375 C-127.95125 291.200625 -128.6525 291.96375 -129.375 292.75 C-133.55869417 295.20564658 -137.43660201 295.61971065 -142.25 295.4375 C-145.0313098 294.59317381 -146.81265788 293.8592829 -149.25 292.4375 C-149.99765625 292.03402344 -150.7453125 291.63054687 -151.515625 291.21484375 C-176.26361229 277.24546099 -192.98245805 254.05284841 -200.72631836 227.02636719 C-208.03586059 198.89443781 -203.61319525 169.55727319 -189.25 144.4375 C-174.6189712 119.90668832 -151.17665417 103.31615457 -123.81005859 95.88867188 C-116.99554513 94.19216225 -110.27680682 93.56176829 -103.25 93.4375 C-103.13785156 92.23480469 -103.13785156 92.23480469 -103.0234375 91.0078125 C-100.62272412 70.24870267 -92.29334053 52.70054801 -79.25 36.4375 C-78.43982422 35.37789062 -78.43982422 35.37789062 -77.61328125 34.296875 C-59.35786608 11.67303554 -28.37709912 -0.24291531 0 0 Z " fill="#000000" transform="translate(219.25,71.5625)"/>
<path d="M0 0 C10.74577402 8.11520854 17.675788 17.4067211 20.6875 30.6875 C21.09763231 34.66942217 21.13229871 38.61641919 21.12109375 42.6171875 C21.1263356 43.72877228 21.13157745 44.84035706 21.13697815 45.98562622 C21.14336611 48.32357961 21.1421035 50.66156527 21.13354492 52.99951172 C21.12503996 56.54583894 21.15383637 60.09055029 21.18554688 63.63671875 C21.18715948 65.92187452 21.18658022 68.20703311 21.18359375 70.4921875 C21.19482773 71.53631805 21.20606171 72.58044861 21.21763611 73.65621948 C21.08782224 87.60351065 15.75063855 98.33215374 6.375 108.4375 C-4.18354681 118.43041038 -15.73077923 121.20189781 -29.84277344 121.10717773 C-43.96516239 120.69639743 -55.04115726 114.850381 -64.71875 104.625 C-73.13081433 94.39856885 -75.78257577 83.78383473 -75.74609375 70.7578125 C-75.7513356 69.64622772 -75.75657745 68.53464294 -75.76197815 67.38937378 C-75.76836611 65.05142039 -75.7671035 62.71343473 -75.75854492 60.37548828 C-75.75003996 56.82916106 -75.77883637 53.28444971 -75.81054688 49.73828125 C-75.81215948 47.45312548 -75.81158022 45.16796689 -75.80859375 42.8828125 C-75.81982773 41.83868195 -75.83106171 40.79455139 -75.84263611 39.71878052 C-75.71282224 25.77148935 -70.37563855 15.04284626 -61 4.9375 C-44.70456176 -10.48496833 -18.58433045 -12.3339951 0 0 Z M-38.3125 29.6875 C-44.25164675 37.23182154 -43.5280471 45.05852133 -43.55273438 54.2421875 C-43.56240908 56.41706042 -43.59345475 58.59097459 -43.625 60.765625 C-43.99883223 72.82811777 -43.99883223 72.82811777 -38.86010742 83.29199219 C-34.14060963 87.38246214 -30.90946021 88.04340438 -24.8515625 87.96484375 C-21.08789598 87.55373556 -19.09459813 86.2046364 -16.3125 83.6875 C-10.37335325 76.14317846 -11.0969529 68.31647867 -11.07226562 59.1328125 C-11.06259092 56.95793958 -11.03154525 54.78402541 -11 52.609375 C-10.62616777 40.54688223 -10.62616777 40.54688223 -15.76489258 30.08300781 C-20.48439037 25.99253786 -23.71553979 25.33159562 -29.7734375 25.41015625 C-33.53710402 25.82126444 -35.53040187 27.1703636 -38.3125 29.6875 Z " fill="#000000" transform="translate(291.3125,279.3125)"/>
<path d="M0 0 C1.03703064 -0.00524185 2.07406128 -0.0104837 3.14251709 -0.0158844 C5.31733306 -0.02226477 7.49218373 -0.02101977 9.66699219 -0.01245117 C12.98955279 -0.00389291 16.31041906 -0.03283696 19.6328125 -0.06445312 C21.75520782 -0.06606424 23.87760617 -0.06548932 26 -0.0625 C27.48140472 -0.07935097 27.48140472 -0.07935097 28.99273682 -0.09654236 C34.76113657 -0.03824756 38.18423618 0.53046422 42.734375 4.43359375 C46.36271163 8.25289547 47.04437958 11.31638381 47.234375 16.43359375 C47.04437958 21.55080369 46.36271163 24.61429203 42.734375 28.43359375 C37.76550097 32.47547717 34.28952138 33.00254852 28.15234375 32.9375 C27.33872879 32.94692123 26.52511383 32.95634247 25.68684387 32.96604919 C23.09826251 32.9945861 20.51060043 32.99778305 17.921875 32.99609375 C15.34399538 32.99972082 12.76678371 33.00948377 10.18904114 33.03684998 C8.59072648 33.05341972 6.99219348 33.05668968 5.3938446 33.0438385 C-1.17589233 33.10488815 -7.75182122 34.11315949 -12.703125 38.68359375 C-16.90614588 46.08091049 -16.60650131 53.90075032 -16.58129883 62.13916016 C-16.57814282 64.29641478 -16.60163061 66.45228966 -16.62695312 68.609375 C-16.81774054 81.14981028 -16.81774054 81.14981028 -11.015625 91.87109375 C-5.02560631 95.27451346 0.81449699 95.71564312 7.51953125 95.70703125 C9.20117867 95.72730887 10.88281926 95.74815943 12.56445312 95.76953125 C15.18666408 95.79215135 17.808604 95.80861984 20.4309082 95.81445312 C22.98176627 95.82399707 25.53144009 95.8577761 28.08203125 95.89453125 C29.24944603 95.88696304 29.24944603 95.88696304 30.44044495 95.87924194 C35.65351954 95.9729635 38.56903865 97.04314021 42.734375 100.43359375 C46.36271163 104.25289547 47.04437958 107.31638381 47.234375 112.43359375 C47.04437958 117.55080369 46.36271163 120.61429203 42.734375 124.43359375 C37.34807756 129.04103449 32.83432109 129.02065343 26.0703125 128.96484375 C25.04185211 128.96867065 24.01339172 128.97249756 22.95376587 128.97644043 C20.78020244 128.97915684 18.60660616 128.97181469 16.43310547 128.95507812 C13.14083967 128.93379714 9.85078904 128.95482169 6.55859375 128.98046875 C-11.24796676 129.00526508 -23.56096458 126.60419226 -37.015625 114.12109375 C-46.68843404 103.90076722 -49.73771937 92.25067644 -49.69921875 78.50390625 C-49.7044606 77.39232147 -49.70970245 76.28073669 -49.71510315 75.13546753 C-49.72149111 72.79751414 -49.7202285 70.45952848 -49.71166992 68.12158203 C-49.70316496 64.57525481 -49.73196137 61.03054346 -49.76367188 57.484375 C-49.76528448 55.19921923 -49.76470522 52.91406064 -49.76171875 50.62890625 C-49.77295273 49.5847757 -49.78418671 48.54064514 -49.79576111 47.46487427 C-49.66594724 33.5175831 -44.32876355 22.78894001 -34.953125 12.68359375 C-24.97378569 3.2388619 -13.46003053 -0.04034051 0 0 Z " fill="#000000" transform="translate(161.265625,271.56640625)"/>
<path d="M0 0 C1.13147461 -0.0038269 2.26294922 -0.00765381 3.42871094 -0.01159668 C5.81576428 -0.01431298 8.20284754 -0.00697167 10.58984375 0.00976562 C14.23765606 0.03117754 17.88349875 0.00995254 21.53125 -0.015625 C23.854171 -0.01298168 26.17709078 -0.00785661 28.5 0 C30.13146973 -0.01214539 30.13146973 -0.01214539 31.79589844 -0.02453613 C37.74879119 0.04895927 41.69552419 0.29148564 46.25 4.53125 C51.2450983 9.89712707 50.83293953 15.33787991 50.78125 22.28125 C50.78699036 23.97846191 50.78699036 23.97846191 50.79284668 25.70996094 C50.79556298 28.09701428 50.78822167 30.48409754 50.77148438 32.87109375 C50.75007246 36.51890606 50.77129746 40.16474875 50.796875 43.8125 C50.79423168 46.135421 50.78910661 48.45834078 50.78125 50.78125 C50.78934692 51.86889648 50.79744385 52.95654297 50.80578613 54.07714844 C50.73229073 60.03004119 50.48976436 63.97677419 46.25 68.53125 C41.82331425 72.24315824 38.82685475 73.01974324 33.1015625 72.921875 C32.44417084 72.91621521 31.78677917 72.91055542 31.10946655 72.90472412 C29.03053809 72.88251275 26.95339837 72.8323542 24.875 72.78125 C23.45705632 72.76116489 22.03908535 72.74291765 20.62109375 72.7265625 C17.16349123 72.68270067 13.70692049 72.61378437 10.25 72.53125 C10.25 75.17125 10.25 77.81125 10.25 80.53125 C11.12736816 80.51030273 12.00473633 80.48935547 12.90869141 80.46777344 C16.18516683 80.399324 19.46087512 80.34931949 22.73779297 80.31152344 C24.15197795 80.29149157 25.56608097 80.26425752 26.97998047 80.22949219 C29.02071419 80.18059511 31.0603469 80.15819877 33.1015625 80.140625 C34.93968506 80.1092041 34.93968506 80.1092041 36.81494141 80.07714844 C42.03815003 80.76763657 45.06573546 83.28465574 48.625 87.03125 C51.02303575 92.19625009 51.00381535 96.9314788 50.25 102.53125 C48.08927805 107.18511266 45.01013001 110.51327935 40.25 112.53125 C36.33212992 113.11828123 32.45577563 113.09194855 28.5 113.0625 C27.36852539 113.0663269 26.23705078 113.07015381 25.07128906 113.07409668 C22.68423572 113.07681298 20.29715246 113.06947167 17.91015625 113.05273438 C14.26234394 113.03132246 10.61650125 113.05254746 6.96875 113.078125 C4.645829 113.07548168 2.32290922 113.07035661 0 113.0625 C-1.08764648 113.07059692 -2.17529297 113.07869385 -3.29589844 113.08703613 C-9.24879119 113.01354073 -13.19552419 112.77101436 -17.75 108.53125 C-22.7450983 103.16537293 -22.33293953 97.72462009 -22.28125 90.78125 C-22.2850769 89.64977539 -22.28890381 88.51830078 -22.29284668 87.35253906 C-22.29556298 84.96548572 -22.28822167 82.57840246 -22.27148438 80.19140625 C-22.25007246 76.54359394 -22.27129746 72.89775125 -22.296875 69.25 C-22.29423168 66.927079 -22.28910661 64.60415922 -22.28125 62.28125 C-22.28934692 61.19360352 -22.29744385 60.10595703 -22.30578613 58.98535156 C-22.23229073 53.03245881 -21.98976436 49.08572581 -17.75 44.53125 C-13.32331425 40.81934176 -10.32685475 40.04275676 -4.6015625 40.140625 C-3.94417084 40.14628479 -3.28677917 40.15194458 -2.60946655 40.15777588 C-0.53053809 40.17998725 1.54660163 40.2301458 3.625 40.28125 C5.04294368 40.30133511 6.46091465 40.31958235 7.87890625 40.3359375 C11.33650877 40.37979933 14.79307951 40.44871563 18.25 40.53125 C18.25 37.89125 18.25 35.25125 18.25 32.53125 C17.37263184 32.55219727 16.49526367 32.57314453 15.59130859 32.59472656 C12.31483317 32.663176 9.03912488 32.71318051 5.76220703 32.75097656 C4.34802205 32.77100843 2.93391903 32.79824248 1.52001953 32.83300781 C-0.52071419 32.88190489 -2.5603469 32.90430123 -4.6015625 32.921875 C-5.82697754 32.94282227 -7.05239258 32.96376953 -8.31494141 32.98535156 C-13.53815003 32.29486343 -16.56573546 29.77784426 -20.125 26.03125 C-22.52303575 20.86624991 -22.50381535 16.1310212 -21.75 10.53125 C-17.11443058 0.54694664 -9.94497838 -0.07403484 0 0 Z " fill="#000000" transform="translate(349.75,327.46875)"/>
</svg>
