<?xml version="1.0" encoding="UTF-8"?>
<svg version="1.1" xmlns="http://www.w3.org/2000/svg" width="512" height="512">
<path d="M0 0 C1.19496094 0.32871094 2.38992188 0.65742187 3.62109375 0.99609375 C30.90610866 9.20147284 54.6338656 27.95746938 68.265625 53.06640625 C72.13046889 60.4820645 75.43336199 68.02991354 78 76 C78.93199219 76.02578125 79.86398437 76.0515625 80.82421875 76.078125 C94.6255165 76.69213622 105.679097 79.71863205 117 88 C117.65742188 88.47308594 118.31484375 88.94617188 118.9921875 89.43359375 C128.98488871 97.2723127 135.25317335 109.79188155 138 122 C138.1875 125.625 138.1875 125.625 138 128 C138.83015625 128.09023437 139.6603125 128.18046875 140.515625 128.2734375 C144.66929481 129.13956147 147.99683149 130.69613258 151.75 132.625 C152.45664795 132.9854541 153.1632959 133.3459082 153.89135742 133.71728516 C176.01371098 145.22222386 191.41771732 163.25101086 199.31640625 186.77734375 C205.88831455 208.69829682 203.58332536 233.2378606 193.13256836 253.41137695 C181.15071356 275.5603216 162.83378631 290.84281061 138.875 298.4375 C133.12099843 300.10391864 127.62739256 301.14361341 121.625 301.0625 C120.75101562 301.05347656 119.87703125 301.04445313 118.9765625 301.03515625 C117.99816406 301.01775391 117.99816406 301.01775391 117 301 C116.67 302.19625 116.34 303.3925 116 304.625 C112.1328044 316.11816076 105.03298087 326.0554752 97 335 C96.06414062 336.05960937 96.06414062 336.05960937 95.109375 337.140625 C79.73264496 353.55108479 55.92300299 364.57922135 33.49609375 365.3359375 C12.10750168 365.61150159 -7.59736222 363.33635848 -25.6875 350.9375 C-26.780625 350.298125 -27.87375 349.65875 -29 349 C-32.67537413 350.04646069 -35.94541107 351.98844773 -39.31689453 353.76733398 C-52.16015053 360.49378113 -67.20507277 366.72269701 -82 365 C-84.625 363.5625 -84.625 363.5625 -86 361 C-86.59112511 357.87220207 -86.87254946 355.07831114 -86 352 C-81.93354685 347.48712983 -77.45194619 347.10360753 -71.75 346.25 C-58.43371367 343.91605452 -46.72408406 338.75336853 -36.078125 330.34765625 C-33.64815571 328.7718303 -31.88068806 328.24613474 -29 328 C-27.078125 328.56640625 -27.078125 328.56640625 -25.25 329.5625 C-24.56035156 329.93632812 -23.87070312 330.31015625 -23.16015625 330.6953125 C-20.9428578 332.03451265 -18.81883944 333.46577008 -16.6875 334.9375 C0.31827445 346.43885001 20.94867716 350.02620318 40.98583984 346.41845703 C55.48286534 343.40659016 68.49673957 337.09239443 79.07421875 326.72265625 C81 325 81 325 83 325 C83.25523437 324.42636719 83.51046875 323.85273438 83.7734375 323.26171875 C85.12880953 320.76248179 86.73743673 318.9369487 88.625 316.8125 C97.21540392 306.11354239 101.61537888 294.16203186 103.63378906 280.68798828 C104.40419306 275.80055323 105.16439798 272.46307952 109 269 C112.09294513 268.07429459 114.86204596 268.30331663 118 269 C120.5625 270.9375 120.5625 270.9375 122 274 C122.2992737 277.03331647 122.23808792 279.96437908 122 283 C141.59960535 280.67167809 157.37658547 271.2346735 170.1875 256.375 C179.59734002 244.12696937 184.60511535 229.12870839 184.4375 213.75 C184.42396484 212.24566406 184.42396484 212.24566406 184.41015625 210.7109375 C183.98188644 192.20016444 176.9288727 175.75267661 163.859375 162.65625 C153.50754374 153.03979473 142.78017112 147.38059549 129.1015625 144.08984375 C125.73006223 142.90514781 124.21113961 141.77178401 122 139 C120.86772164 135.60316492 120.61248129 132.50069104 120.25 128.9375 C118.97740743 118.47410069 114.88035034 110.10298503 107 103 C100.48086107 98.27598628 93.99011557 94.87639056 85.7890625 94.9609375 C84.53867187 94.97382813 83.28828125 94.98671875 82 95 C82.04640625 96.25296875 82.0928125 97.5059375 82.140625 98.796875 C82.17814813 100.44789281 82.21454771 102.09893642 82.25 103.75 C82.28351563 104.575 82.31703125 105.4 82.3515625 106.25 C82.44996469 112.35093589 82.44996469 112.35093589 80.234375 115.546875 C76.79144773 117.78598155 73.96907726 117.8150056 70 117 C66.7424264 114.66122921 65.77142063 112.82872908 65 109 C64.85156893 107.6747701 64.7329638 106.3459406 64.640625 105.015625 C62.62050991 79.67309366 52.96719997 56.6921649 34.30078125 38.9609375 C14.01635879 21.6726861 -11.12984345 12.25886645 -38.00146484 14.328125 C-62.80671664 16.91368871 -86.81556989 28.83346559 -103 48 C-112.43670651 60.17279301 -118.85949666 73.69793612 -122.8828125 88.546875 C-124.43177495 91.94809324 -125.71028558 93.17616869 -129 95 C-132.39425335 95.37873198 -135.72060043 95.17991946 -139.125 95 C-150.73036348 94.71314146 -158.93577371 96.45390213 -168 104.09375 C-176.68158692 112.36838753 -179.9683245 121.80736513 -180.7421875 133.6171875 C-181.08633142 136.79791157 -181.84831391 138.62572569 -184 141 C-188.26567936 143.37677149 -192.52047707 144.8533356 -197.1875 146.25 C-213.34029768 151.41286794 -227.96575548 163.48596236 -235.9453125 178.546875 C-244.44940713 195.49813675 -247.76188257 215.38107948 -241.8125 233.8125 C-240.95083444 236.25246387 -240.00010262 238.60917297 -239 241 C-238.62746094 241.91652344 -238.25492188 242.83304688 -237.87109375 243.77734375 C-235.09735592 249.89503033 -231.1129553 254.96757132 -226.890625 260.140625 C-224.83656774 263.24717441 -224.22568002 265.30705416 -224 269 C-225 271.75 -225 271.75 -227 274 C-230.3125 275.5 -230.3125 275.5 -234 276 C-245.4118157 271.58300925 -251.42017816 257.5926315 -256.17480469 246.97070312 C-264.32989825 227.49498856 -265.04737986 203.91348453 -258 184 C-257.649375 182.96488281 -257.29875 181.92976562 -256.9375 180.86328125 C-247.78707974 156.55747743 -229.11118657 140.55571172 -206 130 C-202.95752675 128.66438411 -201.33558503 128 -198 128 C-197.98582031 127.41734375 -197.97164063 126.8346875 -197.95703125 126.234375 C-197.31194814 115.14591943 -192.59121045 105.7826615 -186 97 C-185.3915625 96.18402344 -184.783125 95.36804688 -184.15625 94.52734375 C-176.88830545 86.00857541 -167.52194071 81.27349267 -157 78 C-156.37609375 77.80535156 -155.7521875 77.61070312 -155.109375 77.41015625 C-151.84960512 76.77631211 -148.55893435 76.62827977 -145.25 76.4375 C-144.55261719 76.39431641 -143.85523438 76.35113281 -143.13671875 76.30664062 C-141.42468078 76.20110404 -139.71236439 76.1001009 -138 76 C-137.67128906 75.030625 -137.34257812 74.06125 -137.00390625 73.0625 C-131.35211436 56.91655693 -123.60968465 43.56557186 -112 31 C-111.34515625 30.26394531 -110.6903125 29.52789062 -110.015625 28.76953125 C-96.8054653 14.62788593 -78.43229119 5.14933849 -60 0 C-58.93652344 -0.3196875 -57.87304688 -0.639375 -56.77734375 -0.96875 C-39.419319 -5.3539352 -17.13300903 -5.14198448 0 0 Z " fill="#000000" transform="translate(286,75)"/>
<path d="M0 0 C0.65742188 0.47308594 1.31484375 0.94617188 1.9921875 1.43359375 C10.02686037 7.73634824 17.70850281 18.66802246 19 29 C20.11375 29.0825 21.2275 29.165 22.375 29.25 C34.92375728 30.88775668 44.18197589 38.21702161 52.2109375 47.60546875 C61.11649486 59.52491561 62.15502612 72.63454724 61 87 C58.76971091 99.38010768 50.84654936 110.38017411 40.6875 117.65625 C31.31262917 123.63273016 22.42701251 125.45222279 11.40673828 125.40405273 C10.29313934 125.41091599 9.17954041 125.41777924 8.03219604 125.42485046 C4.37810242 125.44304068 0.72444137 125.43929168 -2.9296875 125.43359375 C-5.48739765 125.43815944 -8.04510657 125.44346616 -10.60281372 125.44947815 C-15.95385306 125.45839417 -21.30473707 125.45623985 -26.65576172 125.44604492 C-32.81228365 125.43457341 -38.96836945 125.44863411 -45.12483394 125.4754414 C-51.08249764 125.50039696 -57.04002759 125.50275466 -62.99774551 125.49632454 C-65.51655935 125.49617184 -68.03538178 125.50217333 -70.55416489 125.51461601 C-74.08574988 125.52960491 -77.61639236 125.51878972 -81.14794922 125.50170898 C-82.68669708 125.51621094 -82.68669708 125.51621094 -84.25653076 125.53100586 C-98.06082248 125.39221105 -108.76059562 119.95556884 -118.75 110.6875 C-128.66828025 100.20780766 -131.54321922 88.63773658 -131.48999023 74.61254883 C-131.04762533 60.11461401 -125.07565943 49.60684264 -114.6875 39.75 C-107.48587771 33.59120207 -98.6087572 29 -89 29 C-88.86464844 28.39414062 -88.72929688 27.78828125 -88.58984375 27.1640625 C-86.73858808 19.95857635 -83.54481532 14.82921965 -79 9 C-78.57203125 8.38382812 -78.1440625 7.76765625 -77.703125 7.1328125 C-59.72751411 -16.94562925 -22.34326164 -16.34434734 0 0 Z M-67.46875 21.8671875 C-71.39171157 27.33131255 -73.34117642 33.59703804 -74.99609375 40.0546875 C-76.45581216 42.88324692 -78.13853784 43.67346782 -81 45 C-83.98046875 45.51953125 -83.98046875 45.51953125 -87.1875 45.8125 C-96.03548644 47.0336022 -103.25956817 50.88357042 -108.75 58.04296875 C-114.02049061 66.29458061 -115.09065691 74.30650849 -114 84 C-111.52701658 94.2114765 -105.72938361 100.26731431 -97.05078125 105.73828125 C-85.84900961 110.37102419 -73.19529293 109.29248239 -61.3125 109.265625 C-59.20222936 109.26697467 -57.09195903 109.26891772 -54.98168945 109.27142334 C-50.57402567 109.27436037 -46.16644333 109.27012284 -41.75878906 109.26074219 C-36.13380956 109.24934859 -30.50902098 109.25591569 -24.88404846 109.26788712 C-20.53095077 109.27514417 -16.17789769 109.27280017 -11.82479858 109.26763153 C-9.75173927 109.26630566 -7.67867578 109.26790514 -5.60562134 109.27259064 C15.4508886 109.7776587 15.4508886 109.7776587 34 101 C41.04024268 93.82717271 44.09228241 87.10394593 44.4375 77.125 C44.22222301 68.37352237 41.9136258 61.01331024 35.796875 54.59375 C28.98787534 48.55446335 22.30712334 46.23045335 13.44580078 45.02441406 C10.72836176 44.63649219 8.47140813 44.30403844 6.140625 42.80078125 C4.54192323 40.27680345 3.93518399 37.7633135 3.1875 34.875 C-0.02938326 23.97871497 -6.33594146 15.2496222 -16.4375 9.6484375 C-35.12911497 1.1019425 -54.45707919 6.31232648 -67.46875 21.8671875 Z " fill="#000000" transform="translate(131,355)"/>
<path d="M0 0 C0.65742188 0.47308594 1.31484375 0.94617187 1.9921875 1.43359375 C10.02686037 7.73634824 17.70850281 18.66802246 19 29 C20.11375 29.0825 21.2275 29.165 22.375 29.25 C34.92375728 30.88775668 44.18197589 38.21702161 52.2109375 47.60546875 C61.11649486 59.52491561 62.15502612 72.63454724 61 87 C58.76971091 99.38010768 50.84654936 110.38017411 40.6875 117.65625 C30.72137766 124.00965299 21.39081313 125.46675814 9.6953125 125.46875 C7.83300491 125.48017029 7.83300491 125.48017029 5.93307495 125.49182129 C3.3261719 125.50256997 0.71922598 125.50549686 -1.88769531 125.50097656 C-4.55789014 125.50032258 -7.22485086 125.51036571 -9.89453125 125.54199219 C-13.76078443 125.58467653 -17.62572496 125.59387603 -21.4921875 125.59375 C-22.68697723 125.61014526 -23.88176697 125.62654053 -25.11276245 125.64343262 C-33.32750555 125.57447955 -33.32750555 125.57447955 -36.75048828 122.65039062 C-38.28586101 119.39364846 -38.59331737 117.55990425 -38 114 C-36.61157227 111.35229492 -36.61157227 111.35229492 -34 109 C-30.57925901 108.25182297 -27.2047732 108.32666874 -23.71484375 108.36328125 C-22.70337784 108.35290329 -21.69191193 108.34252533 -20.64979553 108.33183289 C-17.41202031 108.30212424 -14.17538681 108.30552024 -10.9375 108.3125 C-7.72492853 108.3035621 -4.51266248 108.28738954 -1.30018616 108.2610321 C0.6966395 108.24630781 2.69358357 108.24219835 4.69044495 108.25080872 C15.60314059 108.20689552 25.25955442 106.93102001 34 100 C40.54948023 93.31234508 43.1270196 86.37931891 43.4375 77.125 C43.22192615 67.97291035 40.7247915 60.43240926 34 54 C27.66981515 48.91837232 21.4319701 47.10383746 13.53393555 46.11254883 C10.38569223 45.67600989 8.23909787 45.17219797 5.640625 43.30078125 C3.66049189 40.52388029 2.95394447 38.11643581 2.125 34.8125 C-0.69156556 25.06368975 -5.63291544 17.8463295 -14 12 C-24.02421381 6.56677703 -35.05724281 5.31107836 -46.21484375 7.68359375 C-55.78514071 10.91843466 -64.28356735 17.13404815 -69.15234375 26.12890625 C-71.23533478 30.64860376 -72.81270947 35.27634711 -74.19140625 40.0546875 C-75.18912454 42.45499527 -75.85776601 43.49151023 -78 45 C-80.50099077 45.5216435 -82.91258173 45.91903695 -85.4375 46.25 C-92.51078695 47.32871827 -97.3837557 49.70991037 -103.44140625 53.59765625 C-105.96019837 54.97818506 -107.18464376 55.46724999 -110 55.1875 C-113.37008643 53.85350745 -115.00054444 53.03917245 -117 50 C-117.56244133 46.13321588 -117.48071081 43.89587015 -115.625 40.4375 C-108.35047468 33.68258363 -99.03341465 29 -89 29 C-88.86464844 28.39414063 -88.72929687 27.78828125 -88.58984375 27.1640625 C-86.73858808 19.95857635 -83.54481532 14.82921965 -79 9 C-78.57203125 8.38382813 -78.1440625 7.76765625 -77.703125 7.1328125 C-59.72751411 -16.94562925 -22.34326164 -16.34434734 0 0 Z " fill="#000000" transform="translate(451,43)"/>
<path d="M0 0 C7.82307491 6.01868147 14.58107568 12.28409035 19.5234375 20.94140625 C19.5234375 21.60140625 19.5234375 22.26140625 19.5234375 22.94140625 C20.24490967 22.7805957 20.96638184 22.61978516 21.7097168 22.45410156 C26.2389709 21.62881448 30.74296544 21.71578832 35.3359375 21.69140625 C36.29564453 21.67078125 37.25535156 21.65015625 38.24414062 21.62890625 C44.37956052 21.59540225 48.98020786 22.23615849 54.5234375 24.94140625 C56.98839814 28.63884721 57.18803501 31.65173141 56.5234375 35.94140625 C55.0859375 38.44140625 55.0859375 38.44140625 52.5234375 39.94140625 C48.16202509 40.53263897 44.03312237 40.02496115 39.7109375 39.31640625 C33.4978634 38.43060653 26.65750569 39.65718008 20.8828125 42.0234375 C17.43265136 43.36580152 15.06672257 42.84333336 11.5234375 41.94140625 C8.19626894 39.69067458 6.97723648 36.86049931 5.3359375 33.31640625 C-0.10433293 22.03657949 -9.38733801 14.13899117 -20.9140625 9.56640625 C-32.70566508 5.98224097 -46.38340701 6.45970076 -57.4765625 11.94140625 C-69.3743052 18.65562947 -77.2076102 28.33022608 -81.5859375 41.203125 C-84.51618924 53.5024711 -83.18820502 66.59227805 -76.96875 77.61328125 C-69.91422331 88.44115942 -60.12362245 96.09808314 -47.59570312 99.54833984 C-42.05947092 100.57522162 -36.27525842 100.30398303 -30.66210938 100.33203125 C-29.66888672 100.35523438 -28.67566406 100.3784375 -27.65234375 100.40234375 C-26.30523315 100.41467041 -26.30523315 100.41467041 -24.9309082 100.42724609 C-21.72038624 101.09981739 -20.52966105 102.43909308 -18.4765625 104.94140625 C-17.14282364 108.32021136 -17.38111938 109.67098408 -18.6015625 113.12890625 C-20.85537669 116.50962753 -21.60555385 116.86805854 -25.4765625 117.94140625 C-44.79622402 119.66059897 -62.41589339 116.63401613 -77.8515625 104.359375 C-89.71619069 94.29837414 -99.3950111 79.0598479 -100.69750977 63.26147461 C-101.16947354 51.38221646 -101.50486286 39.9258481 -96.4765625 28.94140625 C-95.765 27.33652344 -95.765 27.33652344 -95.0390625 25.69921875 C-86.95766279 9.18674339 -73.64900804 -1.6638337 -56.4765625 -8.05859375 C-37.79900053 -13.79311007 -16.08299864 -11.18082338 0 0 Z " fill="#000000" transform="translate(100.4765625,82.05859375)"/>
<path d="M0 0 C4.75210474 1.31406027 8.47174093 4.56256647 12.24609375 7.62109375 C13.24253906 8.40355469 14.23898437 9.18601562 15.265625 9.9921875 C25.67554686 19.17420246 31.81995864 32.27278678 32.68359375 46.04296875 C33.03057797 56.10122738 32.72124209 65.42217773 28.24609375 74.62109375 C27.7871875 75.58273437 27.32828125 76.544375 26.85546875 77.53515625 C19.13166686 92.61689572 6.94847251 101.19403317 -8.92578125 106.7265625 C-23.56097436 110.14641885 -39.67897622 108.52615955 -52.6796875 100.90625 C-55.13873173 99.24138598 -57.45284214 97.49635347 -59.75390625 95.62109375 C-60.37136719 95.1415625 -60.98882812 94.66203125 -61.625 94.16796875 C-64.17920302 92.13440664 -65.9276294 90.36050903 -67.75390625 87.62109375 C-70.56871833 88.00147376 -73.26871259 88.46021825 -75.96875 89.35546875 C-82.07607253 91.35046471 -87.80893597 91.97090839 -94.19140625 92.05859375 C-94.97290039 92.08058838 -95.75439453 92.10258301 -96.55957031 92.12524414 C-100.12156948 92.11250617 -102.31823292 91.93034705 -105.2578125 89.84375 C-107.27378285 86.84874444 -107.3356906 85.03780978 -107.1328125 81.5234375 C-106.75390625 79.62109375 -106.75390625 79.62109375 -105.19140625 77.18359375 C-102.06951045 75.1823785 -99.35370151 74.94093619 -95.75390625 74.62109375 C-86.35250339 73.50421691 -77.74210839 71.94656185 -69.75390625 66.62109375 C-62.7049552 65.94976508 -62.7049552 65.94976508 -59.62890625 68.12109375 C-58.55121697 69.55801279 -57.48041013 71.00027716 -56.4296875 72.45703125 C-50.0488377 81.1992979 -42.71508408 87.56101423 -31.75390625 89.62109375 C-18.70021606 90.50880289 -8.1282973 89.27147335 2.24609375 80.52734375 C10.13673027 73.00658081 14.2351934 64.30555167 14.77026367 53.39257812 C14.98628078 40.9433881 11.35666268 31.88367238 2.6640625 22.8125 C-0.32133695 20.10683103 -3.44169149 17.92196137 -6.90625 15.875 C-8.75390625 14.62109375 -8.75390625 14.62109375 -10.75390625 11.62109375 C-11.3622978 7.62309211 -11.08641928 6.09908123 -8.75390625 2.74609375 C-5.70701918 0.58788208 -3.75804344 -0.23443371 0 0 Z " fill="#000000" transform="translate(479.75390625,348.37890625)"/>
<path d="M0 0 C4.35309759 1.15017624 7.06733763 4.42050489 10.12890625 7.5625 C11.11033683 8.53551351 12.0935177 9.50676369 13.078125 10.4765625 C15.78349017 13.15084641 18.46120683 15.85066585 21.12890625 18.5625 C24.26296293 17.17653133 26.34724807 15.57178844 28.73046875 13.12109375 C29.3853125 12.45529297 30.04015625 11.78949219 30.71484375 11.10351562 C31.72417969 10.06227539 31.72417969 10.06227539 32.75390625 9 C34.09802494 7.62151463 35.44427778 6.24510599 36.79296875 4.87109375 C37.68169678 3.95541626 37.68169678 3.95541626 38.58837891 3.02124023 C41.50456603 0.25987446 44.1385933 0.35284045 48.05859375 0.13671875 C51.14039216 0.77052257 52.19344709 2.11043006 54.12890625 4.5625 C54.63684082 7.75 54.63684082 7.75 54.64648438 11.5625 C54.65349365 12.25891602 54.66050293 12.95533203 54.66772461 13.67285156 C54.68529821 15.96980932 54.67368544 18.26553021 54.66015625 20.5625 C54.66285138 22.16146073 54.66673398 23.76041987 54.67175293 25.359375 C54.67764707 28.70849226 54.66908817 32.05718243 54.65039062 35.40625 C54.6276006 39.69728591 54.64072421 43.98732111 54.66468048 48.27832031 C54.67914105 51.57950366 54.6745314 54.88045011 54.66416931 58.18164062 C54.66150271 59.76367308 54.66476947 61.34572711 54.67408752 62.92773438 C54.68425804 65.13990163 54.66874815 67.350453 54.64648438 69.5625 C54.643302 70.820625 54.64011963 72.07875 54.63684082 73.375 C54.04043383 77.11770109 53.10375275 78.29409929 50.12890625 80.5625 C48.12890625 81.09375 48.12890625 81.09375 46.12890625 81.0625 C45.13890625 81.07796875 45.13890625 81.07796875 44.12890625 81.09375 C41.01099403 80.26555457 40.04998652 79.19356603 38.12890625 76.5625 C37.49821715 73.08707215 37.52392565 69.63432952 37.51953125 66.109375 C37.502995 65.09401672 37.48645874 64.07865845 37.46942139 63.03253174 C37.42087235 59.79246005 37.39955465 56.55285795 37.37890625 53.3125 C37.35075242 51.11455962 37.32082583 48.91664118 37.2890625 46.71875 C37.21511182 41.33341878 37.16350975 35.94822 37.12890625 30.5625 C36.50242188 31.20058594 35.8759375 31.83867187 35.23046875 32.49609375 C34.41320312 33.32238281 33.5959375 34.14867187 32.75390625 35 C31.94179687 35.82371094 31.1296875 36.64742188 30.29296875 37.49609375 C27.13541853 40.51115524 24.76317087 41.07484571 20.359375 41.05078125 C15.98320243 40.092775 13.15035543 36.69114028 10.12890625 33.5625 C9.13011855 32.56128916 8.13031247 31.5610918 7.12890625 30.5625 C7.12526062 31.12990906 7.12161499 31.69731812 7.11785889 32.28192139 C7.07605179 38.18706232 7.00671939 44.0914247 6.92138672 49.99609375 C6.89315915 52.19979059 6.87195355 54.403589 6.85791016 56.60742188 C6.83650578 59.77526932 6.78986727 62.94189308 6.73828125 66.109375 C6.73643829 67.58769806 6.73643829 67.58769806 6.73455811 69.09588623 C6.5881075 75.93358885 6.5881075 75.93358885 4.21582031 79.18261719 C1.96136398 80.67328017 0.80922902 81.10438004 -1.87109375 81.0625 C-2.53109375 81.0728125 -3.19109375 81.083125 -3.87109375 81.09375 C-6.8432676 80.30426632 -7.96765661 78.96186627 -9.87109375 76.5625 C-10.37902832 73.375 -10.37902832 73.375 -10.38867188 69.5625 C-10.39568115 68.86608398 -10.40269043 68.16966797 -10.40991211 67.45214844 C-10.42748571 65.15519068 -10.41587294 62.85946979 -10.40234375 60.5625 C-10.40503888 58.96353927 -10.40892148 57.36458013 -10.41394043 55.765625 C-10.41983457 52.41650774 -10.41127567 49.06781757 -10.39257812 45.71875 C-10.3697881 41.42771409 -10.38291171 37.13767889 -10.40686798 32.84667969 C-10.42132855 29.54549634 -10.4167189 26.24454989 -10.40635681 22.94335938 C-10.40369021 21.36132692 -10.40695697 19.77927289 -10.41627502 18.19726562 C-10.42644554 15.98509837 -10.41093565 13.774547 -10.38867188 11.5625 C-10.3854895 10.304375 -10.38230713 9.04625 -10.37902832 7.75 C-9.43198626 1.80691844 -5.96985583 -0.35181471 0 0 Z " fill="#000000" transform="translate(193.87109375,231.4375)"/>
<path d="M0 0 C0.87269531 -0.0038269 1.74539063 -0.00765381 2.64453125 -0.01159668 C4.48699092 -0.0143149 6.32948924 -0.00695994 8.171875 0.00976562 C10.99045934 0.03117752 13.80649485 0.00996199 16.625 -0.015625 C18.41667229 -0.01298171 20.20834299 -0.00785669 22 0 C22.84175781 -0.00809692 23.68351562 -0.01619385 24.55078125 -0.02453613 C30.38715618 0.06889601 30.38715618 0.06889601 33.52929688 2.43945312 C35.12144695 4.7039853 35.542797 5.7922417 35.5 8.53125 C35.5103125 9.19125 35.520625 9.85125 35.53125 10.53125 C34.74602769 13.48738104 33.37494875 14.63109561 31 16.53125 C27.97558594 16.98535156 27.97558594 16.98535156 24.484375 16.921875 C23.23398437 16.90898437 21.98359375 16.89609375 20.6953125 16.8828125 C18.74238281 16.83253906 18.74238281 16.83253906 16.75 16.78125 C15.43257813 16.76320312 14.11515625 16.74515625 12.7578125 16.7265625 C9.50489844 16.67941882 6.25235783 16.60767616 3 16.53125 C3 21.81125 3 27.09125 3 32.53125 C4.97484375 32.48484375 6.9496875 32.4384375 8.984375 32.390625 C11.57290157 32.35311012 14.16144446 32.31670966 16.75 32.28125 C18.05195313 32.24773437 19.35390625 32.21421875 20.6953125 32.1796875 C21.94570313 32.16679687 23.19609375 32.15390625 24.484375 32.140625 C25.63647461 32.11967773 26.78857422 32.09873047 27.97558594 32.07714844 C31 32.53125 31 32.53125 33.37402344 33.99316406 C35.79154944 37.76682778 35.57354476 41.13427844 35.53125 45.53125 C35.5350769 46.40394531 35.53890381 47.27664063 35.54284668 48.17578125 C35.5455649 50.01824092 35.53820994 51.86073924 35.52148438 53.703125 C35.50007248 56.52170934 35.52128801 59.33774485 35.546875 62.15625 C35.54423171 63.94792229 35.53910669 65.73959299 35.53125 67.53125 C35.53934692 68.37300781 35.54744385 69.21476562 35.55578613 70.08203125 C35.49846604 73.66261419 35.35026558 75.92886762 33.52929688 79.06054688 C29.73810736 81.26499916 26.31507305 81.10400697 22 81.0625 C21.12730469 81.0663269 20.25460937 81.07015381 19.35546875 81.07409668 C17.51300908 81.0768149 15.67051076 81.06945994 13.828125 81.05273438 C11.00954066 81.03132248 8.19350515 81.05253801 5.375 81.078125 C3.58332771 81.07548171 1.79165701 81.07035669 0 81.0625 C-1.26263672 81.07464539 -1.26263672 81.07464539 -2.55078125 81.08703613 C-8.38715618 80.99360399 -8.38715618 80.99360399 -11.52929688 78.62304688 C-13.12144695 76.3585147 -13.542797 75.2702583 -13.5 72.53125 C-13.51546875 71.54125 -13.51546875 71.54125 -13.53125 70.53125 C-12.74602769 67.57511896 -11.37494875 66.43140439 -9 64.53125 C-5.97558594 64.07714844 -5.97558594 64.07714844 -2.484375 64.140625 C-1.23398437 64.15351563 0.01640625 64.16640625 1.3046875 64.1796875 C3.25761719 64.22996094 3.25761719 64.22996094 5.25 64.28125 C6.56742187 64.29929687 7.88484375 64.31734375 9.2421875 64.3359375 C12.49510156 64.38308118 15.74764217 64.45482384 19 64.53125 C19 59.25125 19 53.97125 19 48.53125 C17.02515625 48.57765625 15.0503125 48.6240625 13.015625 48.671875 C10.42709843 48.70938988 7.83855554 48.74579034 5.25 48.78125 C3.94804687 48.81476563 2.64609375 48.84828125 1.3046875 48.8828125 C0.05429687 48.89570313 -1.19609375 48.90859375 -2.484375 48.921875 C-4.21252441 48.9532959 -4.21252441 48.9532959 -5.97558594 48.98535156 C-9 48.53125 -9 48.53125 -11.37402344 47.06933594 C-13.79154944 43.29567222 -13.57354476 39.92822156 -13.53125 35.53125 C-13.5350769 34.65855469 -13.53890381 33.78585937 -13.54284668 32.88671875 C-13.5455649 31.04425908 -13.53820994 29.20176076 -13.52148438 27.359375 C-13.50007248 24.54079066 -13.52128801 21.72475515 -13.546875 18.90625 C-13.54423171 17.11457771 -13.53910669 15.32290701 -13.53125 13.53125 C-13.53934692 12.68949219 -13.54744385 11.84773437 -13.55578613 10.98046875 C-13.49846604 7.39988581 -13.35026558 5.13363238 -11.52929688 2.00195312 C-7.73810736 -0.20249916 -4.31507305 -0.04150697 0 0 Z " fill="#000000" transform="translate(373,231.46875)"/>
<path d="M0 0 C0.87269531 -0.0038269 1.74539063 -0.00765381 2.64453125 -0.01159668 C4.48699092 -0.0143149 6.32948924 -0.00695994 8.171875 0.00976562 C10.99045934 0.03117752 13.80649485 0.00996199 16.625 -0.015625 C18.41667229 -0.01298171 20.20834299 -0.00785669 22 0 C22.84175781 -0.00809692 23.68351562 -0.01619385 24.55078125 -0.02453613 C28.13136419 0.03278396 30.39761762 0.18098442 33.52929688 2.00195312 C35.73374916 5.79314264 35.57275697 9.21617695 35.53125 13.53125 C35.5350769 14.40394531 35.53890381 15.27664062 35.54284668 16.17578125 C35.5455649 18.01824092 35.53820994 19.86073924 35.52148438 21.703125 C35.50007248 24.52170934 35.52128801 27.33774485 35.546875 30.15625 C35.54423171 31.94792229 35.53910669 33.73959299 35.53125 35.53125 C35.53934692 36.37300781 35.54744385 37.21476562 35.55578613 38.08203125 C35.49677844 41.76803226 35.39287016 43.91799502 33.37402344 47.06933594 C30.23776717 49.00062991 28.1559854 48.98863155 24.484375 48.921875 C23.23398437 48.90898437 21.98359375 48.89609375 20.6953125 48.8828125 C18.74238281 48.83253906 18.74238281 48.83253906 16.75 48.78125 C15.43257813 48.76320313 14.11515625 48.74515625 12.7578125 48.7265625 C9.50489844 48.67941882 6.25235783 48.60767616 3 48.53125 C3 53.81125 3 59.09125 3 64.53125 C4.97484375 64.48484375 6.9496875 64.4384375 8.984375 64.390625 C11.57290157 64.35311012 14.16144446 64.31670966 16.75 64.28125 C18.05195313 64.24773437 19.35390625 64.21421875 20.6953125 64.1796875 C21.94570313 64.16679687 23.19609375 64.15390625 24.484375 64.140625 C26.21252441 64.1092041 26.21252441 64.1092041 27.97558594 64.07714844 C31.63146493 64.62606149 32.76793862 65.647668 35 68.53125 C35.53125 70.53125 35.53125 70.53125 35.5 72.53125 C35.5103125 73.19125 35.520625 73.85125 35.53125 74.53125 C34.72011424 77.58493756 33.53019712 78.62236769 31 80.53125 C28.00263779 81.13239553 25.04890723 81.09182764 22 81.0625 C21.12730469 81.0663269 20.25460937 81.07015381 19.35546875 81.07409668 C17.51300908 81.0768149 15.67051076 81.06945994 13.828125 81.05273438 C11.00954066 81.03132248 8.19350515 81.05253801 5.375 81.078125 C3.58332771 81.07548171 1.79165701 81.07035669 0 81.0625 C-1.26263672 81.07464539 -1.26263672 81.07464539 -2.55078125 81.08703613 C-6.13136419 81.02971604 -8.39761762 80.88151558 -11.52929688 79.06054688 C-13.73374916 75.26935736 -13.57275697 71.84632305 -13.53125 67.53125 C-13.5350769 66.65855469 -13.53890381 65.78585937 -13.54284668 64.88671875 C-13.5455649 63.04425908 -13.53820994 61.20176076 -13.52148438 59.359375 C-13.50007248 56.54079066 -13.52128801 53.72475515 -13.546875 50.90625 C-13.54423171 49.11457771 -13.53910669 47.32290701 -13.53125 45.53125 C-13.53934692 44.68949219 -13.54744385 43.84773438 -13.55578613 42.98046875 C-13.49677844 39.29446774 -13.39287016 37.14450498 -11.37402344 33.99316406 C-8.23776717 32.06187009 -6.1559854 32.07386845 -2.484375 32.140625 C-1.23398437 32.15351563 0.01640625 32.16640625 1.3046875 32.1796875 C3.25761719 32.22996094 3.25761719 32.22996094 5.25 32.28125 C6.56742187 32.29929687 7.88484375 32.31734375 9.2421875 32.3359375 C12.49510156 32.38308118 15.74764217 32.45482384 19 32.53125 C19 27.25125 19 21.97125 19 16.53125 C17.02515625 16.57765625 15.0503125 16.6240625 13.015625 16.671875 C10.42709843 16.70938988 7.83855554 16.74579034 5.25 16.78125 C3.94804687 16.81476563 2.64609375 16.84828125 1.3046875 16.8828125 C0.05429687 16.89570313 -1.19609375 16.90859375 -2.484375 16.921875 C-3.63647461 16.94282227 -4.78857422 16.96376953 -5.97558594 16.98535156 C-9.63146493 16.43643851 -10.76793862 15.414832 -13 12.53125 C-13.53125 10.53125 -13.53125 10.53125 -13.5 8.53125 C-13.51546875 7.54125 -13.51546875 7.54125 -13.53125 6.53125 C-11.69061453 -0.39820116 -5.94975317 -0.05723107 0 0 Z " fill="#000000" transform="translate(309,231.46875)"/>
<path d="M0 0 C0.68089691 -0.00619858 1.36179382 -0.01239716 2.06332397 -0.01878357 C3.5039528 -0.02587464 4.9446637 -0.02271991 6.38525391 -0.01000977 C8.55921238 0.00373725 10.72875684 -0.0300659 12.90234375 -0.06835938 C22.23394734 -0.12114956 30.0096266 0.94771374 37.09423828 7.55639648 C43.59183773 14.34502509 45.52729864 21.17955205 45.44140625 30.49780273 C45.14239588 39.02058198 42.23709277 44.73570228 36.0859375 50.50390625 C29.29606628 56.28524012 23.11225134 56.99506085 14.5234375 56.75390625 C13.60111328 56.74037109 12.67878906 56.72683594 11.72851562 56.71289062 C9.47203367 56.67781578 7.21680524 56.62867012 4.9609375 56.56640625 C4.98188477 57.15131836 5.00283203 57.73623047 5.02441406 58.33886719 C5.10773865 60.9978709 5.15964647 63.6565998 5.2109375 66.31640625 C5.24445313 67.23679687 5.27796875 68.1571875 5.3125 69.10546875 C5.41099008 75.90128429 5.41099008 75.90128429 3.1953125 79.17578125 C0.86491053 80.62617129 -0.32191384 81.1088617 -3.0390625 81.06640625 C-3.6990625 81.07671875 -4.3590625 81.08703125 -5.0390625 81.09765625 C-8.01123635 80.30817257 -9.13562536 78.96577252 -11.0390625 76.56640625 C-11.54699707 73.37890625 -11.54699707 73.37890625 -11.55664062 69.56640625 C-11.5636499 68.86999023 -11.57065918 68.17357422 -11.57788086 67.45605469 C-11.59545446 65.15909693 -11.58384169 62.86337604 -11.5703125 60.56640625 C-11.57300763 58.96744552 -11.57689023 57.36848638 -11.58190918 55.76953125 C-11.58780332 52.42041399 -11.57924442 49.07172382 -11.56054688 45.72265625 C-11.53775685 41.43162034 -11.55088046 37.14158514 -11.57483673 32.85058594 C-11.5892973 29.54940259 -11.58468765 26.24845614 -11.57432556 22.94726562 C-11.57165896 21.36523317 -11.57492572 19.78317914 -11.58424377 18.20117188 C-11.59441429 15.98900462 -11.5789044 13.77845325 -11.55664062 11.56640625 C-11.55345825 10.30828125 -11.55027588 9.05015625 -11.54699707 7.75390625 C-10.44818067 0.85837781 -6.32547224 0.05477478 0 0 Z M4.9609375 16.56640625 C4.9609375 24.48640625 4.9609375 32.40640625 4.9609375 40.56640625 C17.0883531 41.07086491 17.0883531 41.07086491 26.3984375 35.37890625 C28.43292918 31.71682123 28.87050834 28.60806448 27.9609375 24.56640625 C25.77719553 21.09811018 24.00910932 19.12883991 20.3984375 17.19140625 C15.33145937 16.2701375 10.11098638 16.56640625 4.9609375 16.56640625 Z " fill="#000000" transform="translate(123.0390625,231.43359375)"/>
<path d="M0 0 C2.5 1.5 2.5 1.5 4 4 C4.791013 8.02098277 4.62153384 10.96411027 2.5 14.5 C-1.03588973 16.62153384 -3.97901723 16.791013 -8 16 C-10.5 14.5 -10.5 14.5 -12 12 C-12.791013 7.97901723 -12.62153384 5.03588973 -10.5 1.5 C-6.96411027 -0.62153384 -4.02098277 -0.791013 0 0 Z " fill="#000000" transform="translate(276,296)"/>
</svg>
