<?xml version="1.0" encoding="UTF-8"?>
<svg version="1.1" xmlns="http://www.w3.org/2000/svg" width="512" height="512">
<path d="M0 0 C8.61137762 1.83975378 14.90907517 5.67914284 22.078125 10.62109375 C31.50737518 17.07515195 38.54730659 19.47819176 50.03515625 18.5234375 C58.07211324 16.92765182 64.88284219 11.27674113 71.57421875 6.83984375 C83.78251285 -0.93083234 96.91990104 -2.31790252 111.09765625 0.4609375 C118.60741098 2.57907345 124.70081058 7.12265278 131.03515625 11.5234375 C139.76321212 17.4032425 147.39639673 19.57637385 158.03515625 18.5234375 C164.98616773 16.93005179 170.37811277 13.00602225 176.06030273 8.89086914 C188.11103413 0.32537214 201.6592044 -2.39846244 216.1796875 0.0546875 C223.98045192 2.06215695 230.23180959 5.19198001 236.76660156 9.86694336 C246.72149098 16.97981727 254.82978025 20.06525689 267.20703125 18.1953125 C273.32548663 16.58519266 278.34338895 12.873159 283.45605469 9.27978516 C296.09364087 0.42943511 308.56428076 -2.39391933 324.05859375 -0.01171875 C333.07761971 2.17197092 340.72983762 6.77888076 348.16015625 12.2109375 C355.85580863 17.6887877 363.57695658 19.79282746 373.03515625 18.5234375 C379.99867058 16.866255 385.27204153 13.6656762 391.03515625 9.5234375 C396.84797688 5.34547267 402.09952537 2.403573 409.03515625 0.5234375 C409.83953125 0.2965625 410.64390625 0.0696875 411.47265625 -0.1640625 C417.01222242 -0.83961935 422.03037744 -1.43885633 427.16015625 1.0234375 C429.42209041 4.03934971 429.62737557 5.8450665 429.69921875 9.5234375 C428.65125839 12.67964753 426.79579716 13.77287978 424.03515625 15.5234375 C421.125 16.10546875 421.125 16.10546875 417.97265625 16.3359375 C408.63372604 17.52836588 401.99491395 22.48144667 394.41015625 27.7109375 C383.13467758 35.37826299 370.32843093 37.08462826 356.99609375 35.0625 C347.98510465 32.85519719 340.3408099 28.26823916 332.91015625 22.8359375 C325.11743287 17.28899109 317.58444367 15.38282817 308.03515625 16.5234375 C299.91267669 18.29432694 293.66595236 22.63114183 287.0390625 27.40234375 C275.54000442 35.52196473 262.84603102 37.27064958 248.94140625 35.0234375 C241.30848391 33.13664771 235.11669225 29.56446734 228.609375 25.26953125 C227.99940674 24.86943848 227.38943848 24.4693457 226.76098633 24.05712891 C225.55770204 23.26319301 224.36049985 22.45993395 223.1706543 21.64599609 C215.85892026 16.78406446 208.62268982 15.63788451 200.03515625 16.5234375 C192.20194492 18.13378932 186.49963319 22.16532671 180.24707031 26.8684082 C169.35434627 34.91178069 157.26260311 36.40786856 144.03515625 35.5234375 C134.87217749 33.95566772 127.82101935 29.84658861 120.27734375 24.71484375 C110.11766387 17.8478794 102.14078043 14.98046468 89.70703125 16.87890625 C84.06390423 18.4359913 79.60729368 21.74066646 74.91137695 25.10742188 C62.02191642 34.32252837 49.69348366 37.25314684 33.890625 35.09375 C23.87887143 32.96805658 15.90658001 27.64149647 7.72265625 21.7109375 C2.43262698 17.94558227 -2.16488099 16.64491357 -8.58984375 16.2109375 C-12.08590351 15.86431961 -13.00814384 15.49250886 -16.02734375 13.3359375 C-17.96484375 10.5234375 -17.96484375 10.5234375 -18.58984375 7.5234375 C-16.49576411 -2.52814479 -8.06760765 -1.29676961 0 0 Z " fill="#464646" transform="translate(49.96484375,336.4765625)"/>
<path d="M0 0 C4.14464249 1.40901365 6.91765108 4.64015409 9.96484375 7.66796875 C11.14841192 8.82554698 12.33200802 9.98309667 13.515625 11.140625 C16.01567282 13.60416642 18.51153825 16.07160922 20.98828125 18.55859375 C21.51341309 19.08485352 22.03854492 19.61111328 22.57958984 20.15332031 C25.70060409 23.56586391 26.47618202 26.10419751 26.33984375 30.72265625 C25.96484375 32.66796875 25.96484375 32.66796875 23.90234375 35.23046875 C19.8949943 37.1915121 18.21990822 37.03824375 13.96484375 35.66796875 C11.08106517 33.54307927 8.50237858 31.19232158 5.96484375 28.66796875 C5.72701172 30.19164062 5.72701172 30.19164062 5.484375 31.74609375 C2.9023162 47.36040355 -3.3832693 60.0584374 -11.7421875 73.390625 C-21.52070796 89.011502 -23.98385329 108.27285007 -19.91015625 126.29296875 C-17.26421889 134.89534185 -12.79946378 142.52630266 -8.03515625 150.10546875 C4.92061335 170.86442655 8.85106612 192.67635841 3.96484375 216.66796875 C1.78092774 225.51807379 -1.53405262 232.90279407 -6.22265625 240.6484375 C-6.68607422 241.42457397 -7.14949219 242.20071045 -7.62695312 243.00036621 C-8.75786256 244.89274496 -9.89396369 246.78177992 -11.03515625 248.66796875 C-10.14423782 248.6590863 -9.2533194 248.65020386 -8.33540344 248.64105225 C0.06590423 248.56086161 8.46708313 248.4999816 16.86868572 248.46072006 C21.18793265 248.43985655 25.506863 248.41156188 29.82592773 248.36621094 C33.9951011 248.32270848 38.16397021 248.29882234 42.33335304 248.28845978 C43.92297975 248.28107625 45.51259005 248.26665772 47.10208702 248.24504852 C49.33103625 248.21595467 51.55873285 248.21201504 53.7878418 248.21386719 C55.68979561 248.20054352 55.68979561 248.20054352 57.63017273 248.18695068 C61.54838654 248.75214336 63.1964136 249.89175979 65.96484375 252.66796875 C66.59375 254.66796875 66.59375 254.66796875 66.52734375 256.66796875 C66.52863281 257.32796875 66.52992188 257.98796875 66.53125 258.66796875 C65.68381004 261.66030848 64.42660338 262.7658857 61.96484375 264.66796875 C59.16919373 265.04213055 56.77403562 265.17541101 53.98339844 265.12207031 C53.18302155 265.12265442 52.38264465 265.12323853 51.55801392 265.12384033 C48.9171383 265.1210575 46.27739674 265.08995709 43.63671875 265.05859375 C41.8039817 265.05113205 39.97123666 265.04543878 38.13848877 265.04144287 C33.31813473 265.02618096 28.4982639 264.98689437 23.67810059 264.94262695 C18.75812314 264.90168626 13.8380675 264.88343442 8.91796875 264.86328125 C-0.73328505 264.82040064 -10.38418045 264.75214256 -20.03515625 264.66796875 C-20.08003174 265.30822998 -20.12490723 265.94849121 -20.17114258 266.6081543 C-20.38321077 269.52508229 -20.61523161 272.44009509 -20.84765625 275.35546875 C-20.91791016 276.36287109 -20.98816406 277.37027344 -21.06054688 278.40820312 C-21.89554294 288.52835544 -21.89554294 288.52835544 -26.03515625 292.66796875 C-33.18380691 293.25392372 -33.18380691 293.25392372 -36.265625 291.1328125 C-38.66338151 287.79289118 -38.63827887 284.88082377 -38.53515625 280.91796875 C-38.52234619 280.16862061 -38.50953613 279.41927246 -38.49633789 278.6472168 C-37.9159637 262.23313242 -31.53704778 248.7834952 -22.91015625 234.98046875 C-12.15990614 217.72184672 -8.53211111 199.91554002 -12.87109375 179.8828125 C-15.58770097 169.05390583 -22.08130494 159.51294388 -27.8737793 150.11230469 C-38.7751652 132.08740638 -41.16312198 109.4968093 -37.00756836 88.95141602 C-33.85245221 76.20539901 -26.91466949 64.98621689 -20.12817383 53.90356445 C-15.29021139 45.92055354 -12.63589383 38.97940126 -12.03515625 29.66796875 C-12.88078125 30.63734375 -13.72640625 31.60671875 -14.59765625 32.60546875 C-17.06521625 35.06138932 -18.11197771 35.69088041 -21.59765625 36.73046875 C-25.42520578 36.66087694 -27.06456754 36.02696566 -30.03515625 33.66796875 C-31.54405094 30.65017938 -31.53541901 29.04474238 -31.03515625 25.66796875 C-26.56317194 19.45291618 -20.63622378 14.11586507 -15.22265625 8.73046875 C-14.46017578 7.96412109 -13.69769531 7.19777344 -12.91210938 6.40820312 C-12.18314453 5.68052734 -11.45417969 4.95285156 -10.703125 4.203125 C-10.04594482 3.54707275 -9.38876465 2.89102051 -8.71166992 2.21508789 C-5.85690124 -0.41934769 -3.83242648 -0.6661682 0 0 Z " fill="#464646" transform="translate(272.03515625,24.33203125)"/>
<path d="M0 0 C3.43938334 0.82754233 5.60268675 3.03077716 7.95741272 5.51097107 C8.47642654 6.02944611 8.99544037 6.54792114 9.53018188 7.08210754 C10.61771461 8.17730784 11.69549904 9.28226604 12.7638092 10.39622498 C14.39617968 12.09416326 16.0606311 13.75465756 17.73280334 15.41331482 C18.78891418 16.48549423 19.84302255 17.55965056 20.89491272 18.63597107 C21.3896257 19.12997406 21.88433868 19.62397705 22.39404297 20.13294983 C25.52517964 23.43933526 26.80302238 25.90392122 26.96131897 30.47190857 C25.82352025 32.79922413 24.79291183 34.64031571 22.96131897 36.47190857 C18.68346834 37.07230866 16.29183742 37.37242867 12.65272522 34.90940857 C10.67519065 33.16100011 8.78818591 31.37651453 6.96131897 29.47190857 C5.97191432 32.38850141 5.0107885 35.29705091 4.17225647 38.26097107 C1.02341212 48.9434991 -5.0706411 56.92706343 -11.78868103 65.65940857 C-19.66493892 76.03434137 -22.02708636 85.49371681 -21.03868103 98.47190857 C-19.26285956 108.17671636 -15.06997037 114.84784915 -9.03868103 122.47190857 C3.09964407 138.61588096 8.26786921 154.68100473 5.50038147 174.82737732 C3.92491212 181.84284968 1.15986327 191.27336427 -4.03868103 196.47190857 C-2.27008476 196.48070793 -2.27008476 196.48070793 -0.46575928 196.48968506 C10.64350712 196.54688743 21.7525773 196.61963619 32.86164379 196.70762348 C38.57299579 196.75235905 44.28427593 196.79160829 49.9957428 196.81834412 C55.50719149 196.84434509 61.01836412 196.8847251 66.52964211 196.93509483 C68.63274516 196.95178519 70.73589598 196.96328593 72.83905602 196.96952248 C75.78399501 196.97913982 78.72822426 197.00717125 81.67298889 197.03953552 C82.54333267 197.03810043 83.41367645 197.03666534 84.31039429 197.03518677 C88.99889261 197.10810139 92.16277192 197.40931886 95.96131897 200.47190857 C97.38794116 203.32515294 97.27165765 205.30645406 96.96131897 208.47190857 C95.60127258 211.12991333 95.60127258 211.12991333 92.96131897 213.47190857 C89.4546944 214.2387612 85.9872489 214.16176017 82.40956116 214.1313324 C81.33608429 214.1418161 80.26260742 214.1522998 79.15660095 214.1631012 C75.60684013 214.19191249 72.05805106 214.18555212 68.50819397 214.17893982 C66.04767124 214.19205107 63.58715929 214.20735352 61.12666321 214.22476196 C54.64933114 214.26469121 48.17228012 214.27480759 41.69483948 214.27879333 C35.08566214 214.28810974 28.47665098 214.32551396 21.86756897 214.36058044 C8.8988338 214.42523718 -4.06979615 214.45936466 -17.03868103 214.47190857 C-17.70090561 216.53249803 -18.35572108 218.59546951 -19.00743103 220.65940857 C-19.37288025 221.80796326 -19.73832947 222.95651794 -20.11485291 224.13987732 C-20.90731743 226.99811088 -21.35906639 229.52538098 -21.53868103 232.47190857 C-21.79855764 235.47431284 -22.169734 236.7287724 -23.60118103 239.53440857 C-26.58648645 241.90734365 -28.38512627 242.22339317 -32.13243103 241.93675232 C-34.03868103 241.47190857 -34.03868103 241.47190857 -36.53868103 239.65940857 C-40.40782539 231.4374768 -37.83454033 221.72128811 -35.03868103 213.47190857 C-31.71141948 205.12630203 -26.90304174 198.40252347 -21.37461853 191.43675232 C-12.46990042 180.13461011 -9.95588237 169.94060948 -11.03868103 155.47190857 C-12.39427571 145.29766031 -19.20937715 137.5162144 -25.23008728 129.58518982 C-36.48618526 114.61265721 -39.90094339 99.47158542 -37.60899353 81.01097107 C-35.26829487 69.07629766 -29.16747029 59.62425777 -21.68345642 50.29856873 C-17.29733005 44.74083483 -12.03868103 37.74498827 -12.03868103 30.47190857 C-12.45118103 30.90503357 -12.86368103 31.33815857 -13.28868103 31.78440857 C-16.45506672 34.83770906 -18.76040425 36.9086231 -23.28868103 37.03440857 C-27.03868103 36.47190857 -27.03868103 36.47190857 -28.97618103 35.34690857 C-30.50717929 32.64514693 -30.91445523 30.57755351 -31.03868103 27.47190857 C-28.11013294 21.65744657 -23.36958016 17.28486871 -18.85240173 12.69529724 C-17.85144782 11.67122811 -16.85951162 10.63826668 -15.8768158 9.59666443 C-14.44620617 8.08048116 -12.99066076 6.59281114 -11.52696228 5.10862732 C-10.66627136 4.21877136 -9.80558044 3.32891541 -8.91880798 2.41209412 C-5.65840214 0.21573528 -3.85622956 -0.24739642 0 0 Z " fill="#464646" transform="translate(387.03868103027344,75.52809143066406)"/>
<path d="M0 0 C3.08800492 1.86831348 5.46831614 4.44872107 8 7 C9.25694964 8.23395247 10.51484739 9.46693955 11.7734375 10.69921875 C14.46023317 13.34712659 17.14254088 15.99916972 19.8046875 18.671875 C20.37171387 19.2400293 20.93874023 19.80818359 21.52294922 20.39355469 C23.7762105 22.84420911 24.94072232 24.54553782 25.375 27.875 C24.89467195 31.87773372 24.07536739 33.38593772 21 36 C17.58897816 36.68220437 16.20054771 36.94404645 13 36 C10.02044423 33.95282223 7.49870273 31.60503051 5 29 C4.72027344 30.01578125 4.44054687 31.0315625 4.15234375 32.078125 C0.41739579 45.1170383 -5.13830619 54.93379234 -13.91796875 65.34375 C-20.84452942 74.18063791 -24.1260743 84.81075374 -23 96 C-21.27478375 106.69924028 -17.00437547 114.27859432 -10.31079102 122.66748047 C1.98472523 138.09813579 5.51586594 153.60070561 4 173 C2.76959057 179.92804402 0.27347312 185.56620822 -3.09130859 191.69873047 C-3.63500092 192.69097626 -4.17869324 193.68322205 -4.73886108 194.70553589 C-5.36312485 195.84129562 -5.36312485 195.84129562 -6 197 C-4.77637505 196.99000725 -4.77637505 196.99000725 -3.5280304 196.97981262 C4.16693767 196.91965305 11.86179138 196.87400108 19.5569334 196.84456348 C23.51291134 196.82892043 27.46869463 196.8077073 31.42456055 196.77368164 C35.24359355 196.74103922 39.06243956 196.72313675 42.88160133 196.71536827 C44.33723709 196.70983349 45.79286285 196.69902528 47.24841881 196.68280983 C49.29042903 196.66096979 51.33167071 196.65803569 53.3737793 196.65942383 C54.53515915 196.65276199 55.696539 196.64610016 56.89311218 196.63923645 C60.35260085 197.04094307 62.22620054 197.92940732 65 200 C66.42662219 202.85324437 66.31033868 204.83454549 66 208 C64.47357178 210.66374207 64.47357178 210.66374207 62 213 C59.16636164 213.47911848 56.93795463 213.63603624 54.11035156 213.56762695 C52.92441658 213.56872215 52.92441658 213.56872215 51.71452332 213.56983948 C49.10585493 213.56636089 46.4989807 213.52748939 43.890625 213.48828125 C42.08031184 213.47895403 40.26998606 213.47183749 38.45965576 213.46684265 C33.69835472 213.44776559 28.93781815 213.39865886 24.17681885 213.34332275 C19.31720318 213.29214544 14.45746381 213.26933186 9.59765625 213.24414062 C0.06476856 213.19054068 -9.46755211 213.1052194 -19 213 C-19.64695013 215.54367743 -20.29106317 218.08801842 -20.93359375 220.6328125 C-21.11547241 221.34671143 -21.29735107 222.06061035 -21.48474121 222.79614258 C-22.68531683 227.56293313 -23.67649352 232.31608061 -24.41015625 237.1796875 C-25 239 -25 239 -28 241 C-31.56839247 241.55396415 -34.8958388 241.74798017 -37.9375 239.6875 C-41.54876082 233.95196812 -39.81095706 226.40464512 -39 220 C-36.53109439 209.59821734 -30.74191398 200.13146986 -23.9375 192 C-14.22624464 180.32382138 -11.84514416 168.74447361 -13 154 C-14.89305544 143.29538437 -22.54193939 134.75261282 -29.03125 126.37890625 C-35.43000383 117.83320213 -39.47299619 107.71574407 -40 97 C-40.07541016 95.79537109 -40.07541016 95.79537109 -40.15234375 94.56640625 C-40.79590554 76.82984327 -33.90443973 62.36792964 -22.93017578 48.98852539 C-17.98497671 42.91188548 -14.34357493 36.80096054 -13 29 C-13.4125 29.5053125 -13.825 30.010625 -14.25 30.53125 C-18.80587095 35.65660482 -18.80587095 35.65660482 -22.10546875 36.60546875 C-25.39890024 36.73522871 -27.68533873 36.18879676 -30.5 34.5 C-32.56640369 31.05599386 -32.67454284 27.87772785 -32 24 C-29.92041016 20.99633789 -29.92041016 20.99633789 -27.0390625 18.22265625 C-26.28041397 17.47742958 -26.28041397 17.47742958 -25.50643921 16.71714783 C-23.8971799 15.14580868 -22.26204127 13.60481847 -20.625 12.0625 C-19.53208514 11.00116759 -18.4409187 9.93803159 -17.3515625 8.87304688 C-7.24781383 -0.93520178 -7.24781383 -0.93520178 0 0 Z " fill="#464646" transform="translate(158,76)"/>
<path d="M0 0 C0.6847641 -0.0049649 1.3695282 -0.00992981 2.07504272 -0.01504517 C4.34520466 -0.02967489 6.61529668 -0.03647066 8.88549805 -0.04199219 C10.46249901 -0.04774369 12.03949994 -0.05350142 13.61650085 -0.05926514 C16.92614061 -0.06977792 20.23575605 -0.07561853 23.54541016 -0.07910156 C27.78239203 -0.08458199 32.01905185 -0.10859896 36.25593281 -0.13707352 C39.51505972 -0.15571712 42.77410941 -0.16090644 46.03328514 -0.16243744 C47.59497015 -0.16546143 49.15665387 -0.17348147 50.71828651 -0.18662262 C52.90618838 -0.20371705 55.09330807 -0.20179487 57.28125 -0.1953125 C58.52542191 -0.19895813 59.76959381 -0.20260376 61.0514679 -0.20635986 C64.61318942 0.19230214 66.4942147 1.01538879 69.3347168 3.16113281 C70.88058555 6.25287033 70.62831201 8.75542834 70.3347168 12.16113281 C68.76416016 14.3563385 68.76416016 14.3563385 66.3347168 16.16113281 C63.07128906 16.66233826 63.07128906 16.66233826 59.15112305 16.6628418 C58.43519989 16.66824478 57.71927673 16.67364777 56.98165894 16.67921448 C54.61975514 16.69170196 52.25907034 16.67521205 49.8972168 16.65722656 C48.25341732 16.65738155 46.60961747 16.65887052 44.96582031 16.66163635 C41.52254053 16.66302035 38.07967729 16.65046264 34.63647461 16.62768555 C30.22450257 16.59930063 25.81322259 16.60203809 21.40119934 16.61477566 C18.00738624 16.62173319 14.61373289 16.61394276 11.21994019 16.60151863 C9.59325778 16.59700483 7.96655822 16.59666672 6.33987427 16.60058403 C4.06566258 16.60349705 1.79240199 16.58698629 -0.48168945 16.56518555 C-1.77534424 16.55978256 -3.06899902 16.55437958 -4.40185547 16.54881287 C-7.86562559 16.13733307 -9.27420403 15.65914394 -11.6652832 13.16113281 C-12.6652832 9.78613281 -12.6652832 9.78613281 -12.6652832 6.16113281 C-9.03673679 0.40550746 -6.54392613 0.03598203 0 0 Z " fill="#464646" transform="translate(39.665283203125,272.8388671875)"/>
<path d="M0 0 C3.56943833 2.58214687 4.7688666 4.20547895 6 8.4375 C6 13.35557017 4.56186364 16.19784965 1.375 19.875 C-2.36422132 21.6462101 -5.94537596 21.67215693 -10 21 C-12.87029869 19.20606332 -14.49131638 18.01736724 -16 15 C-16.52999351 11.21433208 -16.83021253 7.55143964 -14.98828125 4.109375 C-10.70437318 -1.19083558 -6.3786327 -1.79049339 0 0 Z " fill="#474747" transform="translate(261,458)"/>
<path d="M0 0 C2.64233769 2.19257809 4.46669809 3.93339618 6 7 C6.2262475 12.0069555 5.69507747 15.16929766 2.4375 19.0625 C-2.0184244 21.57402103 -3.94989533 21.64128313 -9 21 C-11.87472735 19.75011855 -13.44101438 18.74531416 -15.3125 16.25 C-16.6178024 11.97810122 -16.58533828 8.35552024 -14.8125 4.25 C-10.67716403 -0.88352051 -6.31446032 -2.13033308 0 0 Z " fill="#464646" transform="translate(481,458)"/>
<path d="M0 0 C3.63218181 2.55025531 5.2270072 4.69565063 6 9 C6 14.17392228 4.73407396 16.13747612 1.3125 19.8125 C-2.08251427 21.55588571 -5.30518783 21.54357078 -9 21 C-11.84124653 19.76467542 -13.42097859 18.7444561 -15.3125 16.3125 C-16.34362581 12.84416773 -16.57917512 9.55274495 -16 6 C-12.00183244 -0.56841814 -7.41248782 -2.2355122 0 0 Z " fill="#474747" transform="translate(371,458)"/>
<path d="M0 0 C3.19877975 2.66564979 4.63661405 4.17020705 5.44140625 8.22265625 C5.65311405 12.31339733 5.32946868 14.4728501 3.125 18 C-0.40462672 21.32200161 -3.04954998 21.35252002 -7.7421875 21.26953125 C-11.27603921 20.84767006 -12.75189949 19.72497032 -15 17 C-17.02017902 12.70828329 -17.20862164 9.79537002 -16 5.1875 C-12.18206308 -0.89733697 -6.62064127 -2.40627003 0 0 Z " fill="#474747" transform="translate(41,458)"/>
<path d="M0 0 C2.94214318 1.30086496 3.83163498 2.39796197 6 5 C7.48627251 9.08934866 7.24829824 12.17751207 6 16.3125 C3.32384704 19.90858054 1.32684856 20.8650889 -3 22 C-7.30999579 21.80701511 -10.17727133 20.67875115 -13.5 17.9375 C-15.56770932 13.88823592 -15.82435167 10.46119726 -15 6 C-11.1212551 -0.20599185 -6.97372738 -1.0062761 0 0 Z " fill="#474747" transform="translate(421,409)"/>
<path d="M0 0 C3.2403811 2.41304976 4.6743756 4.06382984 6 7.875 C6 12.68295519 4.45633282 16.26360318 1.375 19.9375 C-2.37999763 21.61736736 -5.96381962 21.66909942 -10 21 C-12.87029869 19.20606332 -14.49131638 18.01736724 -16 15 C-16.52999351 11.21433208 -16.83021253 7.55143964 -14.98828125 4.109375 C-10.70950637 -1.18448462 -6.37339014 -1.80144556 0 0 Z " fill="#474747" transform="translate(151,458)"/>
<path d="M0 0 C3.12068856 1.79273598 4.54965052 3.24259405 6.375 6.3125 C7.22094728 9.95007329 6.96685978 12.39039015 6 16 C3.40536649 19.51038651 1.76271886 20.77811815 -2.4375 22 C-7.35557017 22 -10.19784965 20.56186364 -13.875 17.375 C-15.6462101 13.63577868 -15.67215693 10.05462404 -15 6 C-11.08816506 -0.2589359 -7.00224287 -0.87225171 0 0 Z " fill="#464646" transform="translate(311,409)"/>
<path d="M0 0 C2.87029869 1.79393668 4.49131638 2.98263276 6 6 C6.54016597 10.50728651 6.60322525 13.94994123 4.3125 17.9375 C0.66907369 21.18704239 -1.59743193 22.02504586 -6.5 21.9375 C-10.77956526 20.79118788 -12.37476963 19.55178226 -15 16 C-16.19391511 11.8959168 -16.28249307 9.77313893 -14.8125 5.75 C-10.91431997 -0.16448004 -6.88425838 -1.14124069 0 0 Z " fill="#464646" transform="translate(91,409)"/>
<path d="M0 0 C2.87029869 1.79393668 4.49131638 2.98263276 6 6 C6.54016597 10.50728651 6.60322525 13.94994123 4.3125 17.9375 C0.67660249 21.18032751 -1.61360109 22 -6.5 22 C-10.07689524 20.97802993 -11.91112306 19.91041864 -14.1171875 16.87890625 C-15.79898408 13.29950734 -15.78303482 9.83052169 -15 6 C-11.10231905 -0.23628951 -6.98983895 -0.90541955 0 0 Z " fill="#464646" transform="translate(201,409)"/>
</svg>
